{
	"asset":{
		"generator":"Khronos glTF Blender I/O v4.0.44",
		"version":"2.0"
	},
	"scene":0,
	"scenes":[
		{
			"name":"Scene",
			"nodes":[
				12
			]
		}
	],
	"nodes":[
		{
			"name":"left_forearm",
			"rotation":[
				9.681797585869845e-10,
				1.492407264436224e-08,
				-0.0153490100055933,
				0.9998822212219238
			],
			"scale":[
				1,
				0.9999999403953552,
				0.9999998807907104
			],
			"translation":[
				2.738088369369507e-07,
				0.5396044850349426,
				1.6209256159527285e-14
			]
		},
		{
			"name":"left_shoulder.002",
			"rotation":[
				0.04241444170475006,
				1.581631750013912e-07,
				-0.11730636656284332,
				0.9921896457672119
			],
			"scale":[
				0.9999999403953552,
				1.0000001192092896,
				0.9999998211860657
			],
			"translation":[
				-1.0244548320770264e-07,
				0.5934841632843018,
				5.960464477539063e-08
			]
		},
		{
			"children":[
				1
			],
			"name":"left_shoulder.001",
			"rotation":[
				-0.22915655374526978,
				-1.2130463744597364e-07,
				0.264864057302475,
				0.9366612434387207
			],
			"translation":[
				2.738088369369507e-07,
				0.5396044850349426,
				1.6209256159527285e-14
			]
		},
		{
			"children":[
				0,
				2
			],
			"name":"left_shoulder",
			"rotation":[
				2.4046140634226276e-09,
				1.1918843512148669e-07,
				0.03381787985563278,
				0.9994279742240906
			],
			"scale":[
				1.0000001192092896,
				1,
				1.0000001192092896
			],
			"translation":[
				-2.7567148208618164e-07,
				0.3910498023033142,
				2.8199664825478976e-14
			]
		},
		{
			"children":[
				3
			],
			"name":"left_collarbone",
			"rotation":[
				-2.2920211506516353e-08,
				-1.666503735009428e-08,
				-0.7261075973510742,
				0.6875811219215393
			],
			"scale":[
				0.9999999403953552,
				0.9999999403953552,
				1
			],
			"translation":[
				0,
				1,
				0
			]
		},
		{
			"name":"right_forearm",
			"rotation":[
				-6.88901843556855e-12,
				-6.681856490331484e-08,
				-0.007534737233072519,
				0.9999716281890869
			],
			"scale":[
				0.9999999403953552,
				1,
				1
			],
			"translation":[
				-8.055940270423889e-08,
				0.5324701070785522,
				9.547918011776346e-15
			]
		},
		{
			"children":[
				5
			],
			"name":"right_shoulder",
			"rotation":[
				3.623407129893508e-10,
				1.1352039308576423e-09,
				-0.005594342015683651,
				0.9999843835830688
			],
			"scale":[
				0.9999999403953552,
				0.9999999403953552,
				1
			],
			"translation":[
				1.1874362826347351e-07,
				0.3976322412490845,
				-5.523359547510154e-15
			]
		},
		{
			"children":[
				6
			],
			"name":"right_collarbone",
			"rotation":[
				2.43788278453394e-08,
				-2.562869561018033e-08,
				0.7133913040161133,
				0.7007659673690796
			],
			"translation":[
				0,
				1,
				0
			]
		},
		{
			"name":"head",
			"rotation":[
				0,
				1.1920927533992653e-07,
				0,
				1
			],
			"scale":[
				1,
				0.9999999403953552,
				1
			],
			"translation":[
				0,
				0.22718167304992676,
				0
			]
		},
		{
			"children":[
				8
			],
			"name":"neck",
			"translation":[
				0,
				1,
				0
			]
		},
		{
			"children":[
				4,
				7,
				9
			],
			"name":"core"
		},
		{
			"mesh":0,
			"name":"Cube",
			"skin":0
		},
		{
			"children":[
				11,
				10
			],
			"name":"Armature",
			"scale":[
				3.1928398609161377,
				3.1928398609161377,
				3.1928398609161377
			],
			"translation":[
				0,
				4.306802749633789,
				0
			]
		}
	],
	"animations":[
		{
			"channels":[
				{
					"sampler":0,
					"target":{
						"node":10,
						"path":"translation"
					}
				},
				{
					"sampler":1,
					"target":{
						"node":10,
						"path":"rotation"
					}
				},
				{
					"sampler":2,
					"target":{
						"node":4,
						"path":"translation"
					}
				},
				{
					"sampler":3,
					"target":{
						"node":4,
						"path":"rotation"
					}
				},
				{
					"sampler":4,
					"target":{
						"node":3,
						"path":"translation"
					}
				},
				{
					"sampler":5,
					"target":{
						"node":3,
						"path":"rotation"
					}
				},
				{
					"sampler":6,
					"target":{
						"node":0,
						"path":"translation"
					}
				},
				{
					"sampler":7,
					"target":{
						"node":0,
						"path":"rotation"
					}
				},
				{
					"sampler":8,
					"target":{
						"node":2,
						"path":"translation"
					}
				},
				{
					"sampler":9,
					"target":{
						"node":2,
						"path":"rotation"
					}
				},
				{
					"sampler":10,
					"target":{
						"node":1,
						"path":"translation"
					}
				},
				{
					"sampler":11,
					"target":{
						"node":1,
						"path":"rotation"
					}
				},
				{
					"sampler":12,
					"target":{
						"node":7,
						"path":"translation"
					}
				},
				{
					"sampler":13,
					"target":{
						"node":7,
						"path":"rotation"
					}
				},
				{
					"sampler":14,
					"target":{
						"node":6,
						"path":"translation"
					}
				},
				{
					"sampler":15,
					"target":{
						"node":6,
						"path":"rotation"
					}
				},
				{
					"sampler":16,
					"target":{
						"node":5,
						"path":"translation"
					}
				},
				{
					"sampler":17,
					"target":{
						"node":5,
						"path":"rotation"
					}
				},
				{
					"sampler":18,
					"target":{
						"node":9,
						"path":"translation"
					}
				},
				{
					"sampler":19,
					"target":{
						"node":9,
						"path":"rotation"
					}
				},
				{
					"sampler":20,
					"target":{
						"node":8,
						"path":"translation"
					}
				},
				{
					"sampler":21,
					"target":{
						"node":8,
						"path":"rotation"
					}
				}
			],
			"name":"ArmatureAction.001",
			"samplers":[
				{
					"input":7,
					"interpolation":"LINEAR",
					"output":8
				},
				{
					"input":7,
					"interpolation":"LINEAR",
					"output":9
				},
				{
					"input":7,
					"interpolation":"LINEAR",
					"output":10
				},
				{
					"input":7,
					"interpolation":"LINEAR",
					"output":11
				},
				{
					"input":7,
					"interpolation":"LINEAR",
					"output":12
				},
				{
					"input":7,
					"interpolation":"LINEAR",
					"output":13
				},
				{
					"input":7,
					"interpolation":"LINEAR",
					"output":14
				},
				{
					"input":7,
					"interpolation":"LINEAR",
					"output":15
				},
				{
					"input":7,
					"interpolation":"LINEAR",
					"output":16
				},
				{
					"input":7,
					"interpolation":"LINEAR",
					"output":17
				},
				{
					"input":7,
					"interpolation":"LINEAR",
					"output":18
				},
				{
					"input":7,
					"interpolation":"LINEAR",
					"output":19
				},
				{
					"input":7,
					"interpolation":"LINEAR",
					"output":20
				},
				{
					"input":7,
					"interpolation":"LINEAR",
					"output":21
				},
				{
					"input":7,
					"interpolation":"LINEAR",
					"output":22
				},
				{
					"input":7,
					"interpolation":"LINEAR",
					"output":23
				},
				{
					"input":7,
					"interpolation":"LINEAR",
					"output":24
				},
				{
					"input":7,
					"interpolation":"LINEAR",
					"output":25
				},
				{
					"input":7,
					"interpolation":"LINEAR",
					"output":26
				},
				{
					"input":7,
					"interpolation":"LINEAR",
					"output":27
				},
				{
					"input":7,
					"interpolation":"LINEAR",
					"output":28
				},
				{
					"input":7,
					"interpolation":"LINEAR",
					"output":29
				}
			]
		}
	],
	"meshes":[
		{
			"name":"Cube",
			"primitives":[
				{
					"attributes":{
						"POSITION":0,
						"NORMAL":1,
						"TEXCOORD_0":2,
						"JOINTS_0":3,
						"WEIGHTS_0":4
					},
					"indices":5
				}
			]
		}
	],
	"skins":[
		{
			"inverseBindMatrices":6,
			"joints":[
				10,
				4,
				3,
				0,
				2,
				1,
				7,
				6,
				5,
				9,
				8
			],
			"name":"Armature"
		}
	],
	"accessors":[
		{
			"bufferView":0,
			"componentType":5126,
			"count":1728,
			"max":[
				5.0393266677856445,
				9.547996520996094,
				1.0666096210479736
			],
			"min":[
				-5.0393266677856445,
				0.023677591234445572,
				-0.8985999226570129
			],
			"type":"VEC3"
		},
		{
			"bufferView":1,
			"componentType":5126,
			"count":1728,
			"type":"VEC3"
		},
		{
			"bufferView":2,
			"componentType":5126,
			"count":1728,
			"type":"VEC2"
		},
		{
			"bufferView":3,
			"componentType":5121,
			"count":1728,
			"type":"VEC4"
		},
		{
			"bufferView":4,
			"componentType":5126,
			"count":1728,
			"type":"VEC4"
		},
		{
			"bufferView":5,
			"componentType":5123,
			"count":2628,
			"type":"SCALAR"
		},
		{
			"bufferView":6,
			"componentType":5126,
			"count":11,
			"type":"MAT4"
		},
		{
			"bufferView":7,
			"componentType":5126,
			"count":21,
			"max":[
				0.8333333333333334
			],
			"min":[
				0
			],
			"type":"SCALAR"
		},
		{
			"bufferView":8,
			"componentType":5126,
			"count":21,
			"type":"VEC3"
		},
		{
			"bufferView":9,
			"componentType":5126,
			"count":21,
			"type":"VEC4"
		},
		{
			"bufferView":10,
			"componentType":5126,
			"count":21,
			"type":"VEC3"
		},
		{
			"bufferView":11,
			"componentType":5126,
			"count":21,
			"type":"VEC4"
		},
		{
			"bufferView":12,
			"componentType":5126,
			"count":21,
			"type":"VEC3"
		},
		{
			"bufferView":13,
			"componentType":5126,
			"count":21,
			"type":"VEC4"
		},
		{
			"bufferView":14,
			"componentType":5126,
			"count":21,
			"type":"VEC3"
		},
		{
			"bufferView":15,
			"componentType":5126,
			"count":21,
			"type":"VEC4"
		},
		{
			"bufferView":16,
			"componentType":5126,
			"count":21,
			"type":"VEC3"
		},
		{
			"bufferView":17,
			"componentType":5126,
			"count":21,
			"type":"VEC4"
		},
		{
			"bufferView":18,
			"componentType":5126,
			"count":21,
			"type":"VEC3"
		},
		{
			"bufferView":19,
			"componentType":5126,
			"count":21,
			"type":"VEC4"
		},
		{
			"bufferView":20,
			"componentType":5126,
			"count":21,
			"type":"VEC3"
		},
		{
			"bufferView":21,
			"componentType":5126,
			"count":21,
			"type":"VEC4"
		},
		{
			"bufferView":22,
			"componentType":5126,
			"count":21,
			"type":"VEC3"
		},
		{
			"bufferView":23,
			"componentType":5126,
			"count":21,
			"type":"VEC4"
		},
		{
			"bufferView":24,
			"componentType":5126,
			"count":21,
			"type":"VEC3"
		},
		{
			"bufferView":25,
			"componentType":5126,
			"count":21,
			"type":"VEC4"
		},
		{
			"bufferView":26,
			"componentType":5126,
			"count":21,
			"type":"VEC3"
		},
		{
			"bufferView":27,
			"componentType":5126,
			"count":21,
			"type":"VEC4"
		},
		{
			"bufferView":28,
			"componentType":5126,
			"count":21,
			"type":"VEC3"
		},
		{
			"bufferView":29,
			"componentType":5126,
			"count":21,
			"type":"VEC4"
		}
	],
	"bufferViews":[
		{
			"buffer":0,
			"byteLength":20736,
			"byteOffset":0,
			"target":34962
		},
		{
			"buffer":0,
			"byteLength":20736,
			"byteOffset":20736,
			"target":34962
		},
		{
			"buffer":0,
			"byteLength":13824,
			"byteOffset":41472,
			"target":34962
		},
		{
			"buffer":0,
			"byteLength":6912,
			"byteOffset":55296,
			"target":34962
		},
		{
			"buffer":0,
			"byteLength":27648,
			"byteOffset":62208,
			"target":34962
		},
		{
			"buffer":0,
			"byteLength":5256,
			"byteOffset":89856,
			"target":34963
		},
		{
			"buffer":0,
			"byteLength":704,
			"byteOffset":95112
		},
		{
			"buffer":0,
			"byteLength":84,
			"byteOffset":95816
		},
		{
			"buffer":0,
			"byteLength":252,
			"byteOffset":95900
		},
		{
			"buffer":0,
			"byteLength":336,
			"byteOffset":96152
		},
		{
			"buffer":0,
			"byteLength":252,
			"byteOffset":96488
		},
		{
			"buffer":0,
			"byteLength":336,
			"byteOffset":96740
		},
		{
			"buffer":0,
			"byteLength":252,
			"byteOffset":97076
		},
		{
			"buffer":0,
			"byteLength":336,
			"byteOffset":97328
		},
		{
			"buffer":0,
			"byteLength":252,
			"byteOffset":97664
		},
		{
			"buffer":0,
			"byteLength":336,
			"byteOffset":97916
		},
		{
			"buffer":0,
			"byteLength":252,
			"byteOffset":98252
		},
		{
			"buffer":0,
			"byteLength":336,
			"byteOffset":98504
		},
		{
			"buffer":0,
			"byteLength":252,
			"byteOffset":98840
		},
		{
			"buffer":0,
			"byteLength":336,
			"byteOffset":99092
		},
		{
			"buffer":0,
			"byteLength":252,
			"byteOffset":99428
		},
		{
			"buffer":0,
			"byteLength":336,
			"byteOffset":99680
		},
		{
			"buffer":0,
			"byteLength":252,
			"byteOffset":100016
		},
		{
			"buffer":0,
			"byteLength":336,
			"byteOffset":100268
		},
		{
			"buffer":0,
			"byteLength":252,
			"byteOffset":100604
		},
		{
			"buffer":0,
			"byteLength":336,
			"byteOffset":100856
		},
		{
			"buffer":0,
			"byteLength":252,
			"byteOffset":101192
		},
		{
			"buffer":0,
			"byteLength":336,
			"byteOffset":101444
		},
		{
			"buffer":0,
			"byteLength":252,
			"byteOffset":101780
		},
		{
			"buffer":0,
			"byteLength":336,
			"byteOffset":102032
		}
	],
	"buffers":[
		{
			"byteLength":102368,
			"uri":"chel5.bin"
		}
	]
}
