{
	"asset":{
		"generator":"Khronos glTF Blender I/O v4.0.44",
		"version":"2.0"
	},
	"scene":0,
	"scenes":[
		{
			"name":"Scene",
			"nodes":[
				18
			]
		}
	],
	"nodes":[
		{
			"name":"Bone.003",
			"rotation":[
				9.681797585869845e-10,
				1.492407264436224e-08,
				-0.0153490100055933,
				0.9998822212219238
			],
			"scale":[
				1,
				0.9999999403953552,
				0.9999998807907104
			],
			"translation":[
				2.738088369369507e-07,
				0.5396044850349426,
				1.6209256159527285e-14
			]
		},
		{
			"children":[
				0
			],
			"name":"Bone.002",
			"rotation":[
				2.4046140634226276e-09,
				1.1918843512148669e-07,
				0.03381787985563278,
				0.9994279742240906
			],
			"scale":[
				1.0000001192092896,
				1,
				1.0000001192092896
			],
			"translation":[
				-2.7567148208618164e-07,
				0.3910498023033142,
				2.8199664825478976e-14
			]
		},
		{
			"children":[
				1
			],
			"name":"Bone.001",
			"rotation":[
				-2.2920211506516353e-08,
				-1.666503735009428e-08,
				-0.7261075973510742,
				0.6875811219215393
			],
			"scale":[
				0.9999999403953552,
				0.9999999403953552,
				1
			],
			"translation":[
				0,
				1,
				0
			]
		},
		{
			"name":"Bone.006",
			"rotation":[
				-6.88901843556855e-12,
				-6.681856490331484e-08,
				-0.007534737233072519,
				0.9999716281890869
			],
			"scale":[
				0.9999999403953552,
				1,
				1
			],
			"translation":[
				-8.055940270423889e-08,
				0.5324701070785522,
				9.547918011776346e-15
			]
		},
		{
			"children":[
				3
			],
			"name":"Bone.005",
			"rotation":[
				3.623407129893508e-10,
				1.1352039308576423e-09,
				-0.005594342015683651,
				0.9999843835830688
			],
			"scale":[
				0.9999999403953552,
				0.9999999403953552,
				1
			],
			"translation":[
				1.1874362826347351e-07,
				0.3976322412490845,
				-5.523359547510154e-15
			]
		},
		{
			"children":[
				4
			],
			"name":"Bone.004",
			"rotation":[
				2.43788278453394e-08,
				-2.562869561018033e-08,
				0.7133913040161133,
				0.7007659673690796
			],
			"translation":[
				0,
				1,
				0
			]
		},
		{
			"name":"Bone.014",
			"rotation":[
				0,
				1.1920927533992653e-07,
				0,
				1
			],
			"scale":[
				1,
				0.9999999403953552,
				1
			],
			"translation":[
				0,
				0.22718167304992676,
				0
			]
		},
		{
			"children":[
				6
			],
			"name":"Bone.013",
			"translation":[
				0,
				1,
				0
			]
		},
		{
			"children":[
				2,
				5,
				7
			],
			"name":"Bone"
		},
		{
			"name":"Bone.016",
			"rotation":[
				-0.002540813060477376,
				1.0260059468691907e-07,
				-0.6614320278167725,
				0.7500007748603821
			],
			"translation":[
				1.509903313490213e-14,
				0.582425057888031,
				6.519309536656692e-09
			]
		},
		{
			"children":[
				9
			],
			"name":"Bone.012",
			"rotation":[
				0.0014305385993793607,
				2.8811664165573347e-08,
				-3.13650549976785e-10,
				0.9999989867210388
			],
			"scale":[
				1,
				1,
				0.9999999403953552
			],
			"translation":[
				2.1316282072803006e-14,
				0.6427448987960815,
				-1.862612730718638e-09
			]
		},
		{
			"children":[
				10
			],
			"name":"Bone.010",
			"rotation":[
				-0.6621317863464355,
				-1.2379111069549253e-08,
				1.5382033780042548e-07,
				0.7493873834609985
			],
			"scale":[
				1,
				0.9999998807907104,
				1.0000001192092896
			],
			"translation":[
				7.327471962526033e-15,
				0.1854369193315506,
				7.078051567077637e-08
			]
		},
		{
			"children":[
				11
			],
			"name":"Bone.007",
			"rotation":[
				-0.5233814716339111,
				-0.4754701554775238,
				-0.5233813524246216,
				0.4754701256752014
			],
			"scale":[
				0.9999999403953552,
				0.9999998807907104,
				1
			]
		},
		{
			"name":"Bone.015",
			"rotation":[
				-0.00040408846689388156,
				-2.5121591917809383e-08,
				0.67100590467453,
				0.7414519190788269
			],
			"scale":[
				0.9999998807907104,
				1,
				0.9999999403953552
			],
			"translation":[
				-9.769962616701378e-15,
				0.5892645120620728,
				-2.2060730131556738e-08
			]
		},
		{
			"children":[
				13
			],
			"name":"Bone.011",
			"rotation":[
				-0.018830887973308563,
				-9.025060165868126e-08,
				1.8259218581562209e-09,
				0.999822735786438
			],
			"scale":[
				0.9999999403953552,
				0.9999999403953552,
				0.9999999403953552
			],
			"translation":[
				-5.662137425588298e-15,
				0.6502193808555603,
				1.4901162970204496e-08
			]
		},
		{
			"children":[
				14
			],
			"name":"Bone.009",
			"rotation":[
				-0.6695405840873718,
				-3.841797990844498e-08,
				-3.0233888281827603e-08,
				0.7427754998207092
			],
			"scale":[
				0.9999999403953552,
				0.9999999403953552,
				0.9999998807907104
			],
			"translation":[
				4.773959005888173e-15,
				0.17780527472496033,
				3.632158041000366e-08
			]
		},
		{
			"children":[
				15
			],
			"name":"Bone.008",
			"rotation":[
				-0.5147553086280823,
				0.48479577898979187,
				0.514755368232727,
				0.48479580879211426
			],
			"scale":[
				0.9999999403953552,
				1,
				1
			]
		},
		{
			"mesh":0,
			"name":"Cube",
			"skin":0
		},
		{
			"children":[
				17,
				8,
				12,
				16
			],
			"name":"Armature",
			"scale":[
				3.1928398609161377,
				3.1928398609161377,
				3.1928398609161377
			],
			"translation":[
				0,
				4.306802749633789,
				0
			]
		}
	],
	"animations":[
		{
			"channels":[
				{
					"sampler":0,
					"target":{
						"node":8,
						"path":"translation"
					}
				},
				{
					"sampler":1,
					"target":{
						"node":8,
						"path":"rotation"
					}
				},
				{
					"sampler":2,
					"target":{
						"node":8,
						"path":"scale"
					}
				},
				{
					"sampler":3,
					"target":{
						"node":2,
						"path":"translation"
					}
				},
				{
					"sampler":4,
					"target":{
						"node":2,
						"path":"rotation"
					}
				},
				{
					"sampler":5,
					"target":{
						"node":2,
						"path":"scale"
					}
				},
				{
					"sampler":6,
					"target":{
						"node":1,
						"path":"translation"
					}
				},
				{
					"sampler":7,
					"target":{
						"node":1,
						"path":"rotation"
					}
				},
				{
					"sampler":8,
					"target":{
						"node":1,
						"path":"scale"
					}
				},
				{
					"sampler":9,
					"target":{
						"node":0,
						"path":"translation"
					}
				},
				{
					"sampler":10,
					"target":{
						"node":0,
						"path":"rotation"
					}
				},
				{
					"sampler":11,
					"target":{
						"node":0,
						"path":"scale"
					}
				},
				{
					"sampler":12,
					"target":{
						"node":5,
						"path":"translation"
					}
				},
				{
					"sampler":13,
					"target":{
						"node":5,
						"path":"rotation"
					}
				},
				{
					"sampler":14,
					"target":{
						"node":5,
						"path":"scale"
					}
				},
				{
					"sampler":15,
					"target":{
						"node":4,
						"path":"translation"
					}
				},
				{
					"sampler":16,
					"target":{
						"node":4,
						"path":"rotation"
					}
				},
				{
					"sampler":17,
					"target":{
						"node":4,
						"path":"scale"
					}
				},
				{
					"sampler":18,
					"target":{
						"node":3,
						"path":"translation"
					}
				},
				{
					"sampler":19,
					"target":{
						"node":3,
						"path":"rotation"
					}
				},
				{
					"sampler":20,
					"target":{
						"node":3,
						"path":"scale"
					}
				},
				{
					"sampler":21,
					"target":{
						"node":7,
						"path":"translation"
					}
				},
				{
					"sampler":22,
					"target":{
						"node":7,
						"path":"rotation"
					}
				},
				{
					"sampler":23,
					"target":{
						"node":7,
						"path":"scale"
					}
				},
				{
					"sampler":24,
					"target":{
						"node":6,
						"path":"translation"
					}
				},
				{
					"sampler":25,
					"target":{
						"node":6,
						"path":"rotation"
					}
				},
				{
					"sampler":26,
					"target":{
						"node":6,
						"path":"scale"
					}
				},
				{
					"sampler":27,
					"target":{
						"node":12,
						"path":"translation"
					}
				},
				{
					"sampler":28,
					"target":{
						"node":12,
						"path":"rotation"
					}
				},
				{
					"sampler":29,
					"target":{
						"node":12,
						"path":"scale"
					}
				},
				{
					"sampler":30,
					"target":{
						"node":11,
						"path":"translation"
					}
				},
				{
					"sampler":31,
					"target":{
						"node":11,
						"path":"rotation"
					}
				},
				{
					"sampler":32,
					"target":{
						"node":11,
						"path":"scale"
					}
				},
				{
					"sampler":33,
					"target":{
						"node":10,
						"path":"translation"
					}
				},
				{
					"sampler":34,
					"target":{
						"node":10,
						"path":"rotation"
					}
				},
				{
					"sampler":35,
					"target":{
						"node":10,
						"path":"scale"
					}
				},
				{
					"sampler":36,
					"target":{
						"node":9,
						"path":"translation"
					}
				},
				{
					"sampler":37,
					"target":{
						"node":9,
						"path":"rotation"
					}
				},
				{
					"sampler":38,
					"target":{
						"node":9,
						"path":"scale"
					}
				},
				{
					"sampler":39,
					"target":{
						"node":16,
						"path":"translation"
					}
				},
				{
					"sampler":40,
					"target":{
						"node":16,
						"path":"rotation"
					}
				},
				{
					"sampler":41,
					"target":{
						"node":16,
						"path":"scale"
					}
				},
				{
					"sampler":42,
					"target":{
						"node":15,
						"path":"translation"
					}
				},
				{
					"sampler":43,
					"target":{
						"node":15,
						"path":"rotation"
					}
				},
				{
					"sampler":44,
					"target":{
						"node":15,
						"path":"scale"
					}
				},
				{
					"sampler":45,
					"target":{
						"node":14,
						"path":"translation"
					}
				},
				{
					"sampler":46,
					"target":{
						"node":14,
						"path":"rotation"
					}
				},
				{
					"sampler":47,
					"target":{
						"node":14,
						"path":"scale"
					}
				},
				{
					"sampler":48,
					"target":{
						"node":13,
						"path":"translation"
					}
				},
				{
					"sampler":49,
					"target":{
						"node":13,
						"path":"rotation"
					}
				},
				{
					"sampler":50,
					"target":{
						"node":13,
						"path":"scale"
					}
				}
			],
			"name":"ArmatureAction",
			"samplers":[
				{
					"input":7,
					"interpolation":"LINEAR",
					"output":8
				},
				{
					"input":7,
					"interpolation":"LINEAR",
					"output":9
				},
				{
					"input":7,
					"interpolation":"LINEAR",
					"output":10
				},
				{
					"input":7,
					"interpolation":"LINEAR",
					"output":11
				},
				{
					"input":7,
					"interpolation":"LINEAR",
					"output":12
				},
				{
					"input":7,
					"interpolation":"LINEAR",
					"output":13
				},
				{
					"input":7,
					"interpolation":"LINEAR",
					"output":14
				},
				{
					"input":7,
					"interpolation":"LINEAR",
					"output":15
				},
				{
					"input":7,
					"interpolation":"LINEAR",
					"output":16
				},
				{
					"input":7,
					"interpolation":"LINEAR",
					"output":17
				},
				{
					"input":7,
					"interpolation":"LINEAR",
					"output":18
				},
				{
					"input":7,
					"interpolation":"LINEAR",
					"output":19
				},
				{
					"input":7,
					"interpolation":"LINEAR",
					"output":20
				},
				{
					"input":7,
					"interpolation":"LINEAR",
					"output":21
				},
				{
					"input":7,
					"interpolation":"LINEAR",
					"output":22
				},
				{
					"input":7,
					"interpolation":"LINEAR",
					"output":23
				},
				{
					"input":7,
					"interpolation":"LINEAR",
					"output":24
				},
				{
					"input":7,
					"interpolation":"LINEAR",
					"output":25
				},
				{
					"input":7,
					"interpolation":"LINEAR",
					"output":26
				},
				{
					"input":7,
					"interpolation":"LINEAR",
					"output":27
				},
				{
					"input":7,
					"interpolation":"LINEAR",
					"output":28
				},
				{
					"input":7,
					"interpolation":"LINEAR",
					"output":29
				},
				{
					"input":7,
					"interpolation":"LINEAR",
					"output":30
				},
				{
					"input":7,
					"interpolation":"LINEAR",
					"output":31
				},
				{
					"input":7,
					"interpolation":"LINEAR",
					"output":32
				},
				{
					"input":7,
					"interpolation":"LINEAR",
					"output":33
				},
				{
					"input":7,
					"interpolation":"LINEAR",
					"output":34
				},
				{
					"input":7,
					"interpolation":"LINEAR",
					"output":35
				},
				{
					"input":7,
					"interpolation":"LINEAR",
					"output":36
				},
				{
					"input":7,
					"interpolation":"LINEAR",
					"output":37
				},
				{
					"input":7,
					"interpolation":"LINEAR",
					"output":38
				},
				{
					"input":7,
					"interpolation":"LINEAR",
					"output":39
				},
				{
					"input":7,
					"interpolation":"LINEAR",
					"output":40
				},
				{
					"input":7,
					"interpolation":"LINEAR",
					"output":41
				},
				{
					"input":7,
					"interpolation":"LINEAR",
					"output":42
				},
				{
					"input":7,
					"interpolation":"LINEAR",
					"output":43
				},
				{
					"input":7,
					"interpolation":"LINEAR",
					"output":44
				},
				{
					"input":7,
					"interpolation":"LINEAR",
					"output":45
				},
				{
					"input":7,
					"interpolation":"LINEAR",
					"output":46
				},
				{
					"input":7,
					"interpolation":"LINEAR",
					"output":47
				},
				{
					"input":7,
					"interpolation":"LINEAR",
					"output":48
				},
				{
					"input":7,
					"interpolation":"LINEAR",
					"output":49
				},
				{
					"input":7,
					"interpolation":"LINEAR",
					"output":50
				},
				{
					"input":7,
					"interpolation":"LINEAR",
					"output":51
				},
				{
					"input":7,
					"interpolation":"LINEAR",
					"output":52
				},
				{
					"input":7,
					"interpolation":"LINEAR",
					"output":53
				},
				{
					"input":7,
					"interpolation":"LINEAR",
					"output":54
				},
				{
					"input":7,
					"interpolation":"LINEAR",
					"output":55
				},
				{
					"input":7,
					"interpolation":"LINEAR",
					"output":56
				},
				{
					"input":7,
					"interpolation":"LINEAR",
					"output":57
				},
				{
					"input":7,
					"interpolation":"LINEAR",
					"output":58
				}
			]
		}
	],
	"meshes":[
		{
			"name":"Cube",
			"primitives":[
				{
					"attributes":{
						"POSITION":0,
						"NORMAL":1,
						"TEXCOORD_0":2,
						"JOINTS_0":3,
						"WEIGHTS_0":4
					},
					"indices":5
				}
			]
		}
	],
	"skins":[
		{
			"inverseBindMatrices":6,
			"joints":[
				8,
				2,
				1,
				0,
				5,
				4,
				3,
				7,
				6,
				12,
				11,
				10,
				9,
				16,
				15,
				14,
				13
			],
			"name":"Armature"
		}
	],
	"accessors":[
		{
			"bufferView":0,
			"componentType":5126,
			"count":111816,
			"max":[
				5.039327144622803,
				9.5219087600708,
				1.0203044414520264
			],
			"min":[
				-5.039327144622803,
				0.026766762137413025,
				-0.8448030948638916
			],
			"type":"VEC3"
		},
		{
			"bufferView":1,
			"componentType":5126,
			"count":111816,
			"type":"VEC3"
		},
		{
			"bufferView":2,
			"componentType":5126,
			"count":111816,
			"type":"VEC2"
		},
		{
			"bufferView":3,
			"componentType":5121,
			"count":111816,
			"type":"VEC4"
		},
		{
			"bufferView":4,
			"componentType":5126,
			"count":111816,
			"type":"VEC4"
		},
		{
			"bufferView":5,
			"componentType":5125,
			"count":167808,
			"type":"SCALAR"
		},
		{
			"bufferView":6,
			"componentType":5126,
			"count":17,
			"type":"MAT4"
		},
		{
			"bufferView":7,
			"componentType":5126,
			"count":30,
			"max":[
				1.25
			],
			"min":[
				0.041666666666666664
			],
			"type":"SCALAR"
		},
		{
			"bufferView":8,
			"componentType":5126,
			"count":30,
			"type":"VEC3"
		},
		{
			"bufferView":9,
			"componentType":5126,
			"count":30,
			"type":"VEC4"
		},
		{
			"bufferView":10,
			"componentType":5126,
			"count":30,
			"type":"VEC3"
		},
		{
			"bufferView":11,
			"componentType":5126,
			"count":30,
			"type":"VEC3"
		},
		{
			"bufferView":12,
			"componentType":5126,
			"count":30,
			"type":"VEC4"
		},
		{
			"bufferView":13,
			"componentType":5126,
			"count":30,
			"type":"VEC3"
		},
		{
			"bufferView":14,
			"componentType":5126,
			"count":30,
			"type":"VEC3"
		},
		{
			"bufferView":15,
			"componentType":5126,
			"count":30,
			"type":"VEC4"
		},
		{
			"bufferView":16,
			"componentType":5126,
			"count":30,
			"type":"VEC3"
		},
		{
			"bufferView":17,
			"componentType":5126,
			"count":30,
			"type":"VEC3"
		},
		{
			"bufferView":18,
			"componentType":5126,
			"count":30,
			"type":"VEC4"
		},
		{
			"bufferView":19,
			"componentType":5126,
			"count":30,
			"type":"VEC3"
		},
		{
			"bufferView":20,
			"componentType":5126,
			"count":30,
			"type":"VEC3"
		},
		{
			"bufferView":21,
			"componentType":5126,
			"count":30,
			"type":"VEC4"
		},
		{
			"bufferView":22,
			"componentType":5126,
			"count":30,
			"type":"VEC3"
		},
		{
			"bufferView":23,
			"componentType":5126,
			"count":30,
			"type":"VEC3"
		},
		{
			"bufferView":24,
			"componentType":5126,
			"count":30,
			"type":"VEC4"
		},
		{
			"bufferView":25,
			"componentType":5126,
			"count":30,
			"type":"VEC3"
		},
		{
			"bufferView":26,
			"componentType":5126,
			"count":30,
			"type":"VEC3"
		},
		{
			"bufferView":27,
			"componentType":5126,
			"count":30,
			"type":"VEC4"
		},
		{
			"bufferView":28,
			"componentType":5126,
			"count":30,
			"type":"VEC3"
		},
		{
			"bufferView":29,
			"componentType":5126,
			"count":30,
			"type":"VEC3"
		},
		{
			"bufferView":30,
			"componentType":5126,
			"count":30,
			"type":"VEC4"
		},
		{
			"bufferView":31,
			"componentType":5126,
			"count":30,
			"type":"VEC3"
		},
		{
			"bufferView":32,
			"componentType":5126,
			"count":30,
			"type":"VEC3"
		},
		{
			"bufferView":33,
			"componentType":5126,
			"count":30,
			"type":"VEC4"
		},
		{
			"bufferView":34,
			"componentType":5126,
			"count":30,
			"type":"VEC3"
		},
		{
			"bufferView":35,
			"componentType":5126,
			"count":30,
			"type":"VEC3"
		},
		{
			"bufferView":36,
			"componentType":5126,
			"count":30,
			"type":"VEC4"
		},
		{
			"bufferView":37,
			"componentType":5126,
			"count":30,
			"type":"VEC3"
		},
		{
			"bufferView":38,
			"componentType":5126,
			"count":30,
			"type":"VEC3"
		},
		{
			"bufferView":39,
			"componentType":5126,
			"count":30,
			"type":"VEC4"
		},
		{
			"bufferView":40,
			"componentType":5126,
			"count":30,
			"type":"VEC3"
		},
		{
			"bufferView":41,
			"componentType":5126,
			"count":30,
			"type":"VEC3"
		},
		{
			"bufferView":42,
			"componentType":5126,
			"count":30,
			"type":"VEC4"
		},
		{
			"bufferView":43,
			"componentType":5126,
			"count":30,
			"type":"VEC3"
		},
		{
			"bufferView":44,
			"componentType":5126,
			"count":30,
			"type":"VEC3"
		},
		{
			"bufferView":45,
			"componentType":5126,
			"count":30,
			"type":"VEC4"
		},
		{
			"bufferView":46,
			"componentType":5126,
			"count":30,
			"type":"VEC3"
		},
		{
			"bufferView":47,
			"componentType":5126,
			"count":30,
			"type":"VEC3"
		},
		{
			"bufferView":48,
			"componentType":5126,
			"count":30,
			"type":"VEC4"
		},
		{
			"bufferView":49,
			"componentType":5126,
			"count":30,
			"type":"VEC3"
		},
		{
			"bufferView":50,
			"componentType":5126,
			"count":30,
			"type":"VEC3"
		},
		{
			"bufferView":51,
			"componentType":5126,
			"count":30,
			"type":"VEC4"
		},
		{
			"bufferView":52,
			"componentType":5126,
			"count":30,
			"type":"VEC3"
		},
		{
			"bufferView":53,
			"componentType":5126,
			"count":30,
			"type":"VEC3"
		},
		{
			"bufferView":54,
			"componentType":5126,
			"count":30,
			"type":"VEC4"
		},
		{
			"bufferView":55,
			"componentType":5126,
			"count":30,
			"type":"VEC3"
		},
		{
			"bufferView":56,
			"componentType":5126,
			"count":30,
			"type":"VEC3"
		},
		{
			"bufferView":57,
			"componentType":5126,
			"count":30,
			"type":"VEC4"
		},
		{
			"bufferView":58,
			"componentType":5126,
			"count":30,
			"type":"VEC3"
		}
	],
	"bufferViews":[
		{
			"buffer":0,
			"byteLength":1341792,
			"byteOffset":0,
			"target":34962
		},
		{
			"buffer":0,
			"byteLength":1341792,
			"byteOffset":1341792,
			"target":34962
		},
		{
			"buffer":0,
			"byteLength":894528,
			"byteOffset":2683584,
			"target":34962
		},
		{
			"buffer":0,
			"byteLength":447264,
			"byteOffset":3578112,
			"target":34962
		},
		{
			"buffer":0,
			"byteLength":1789056,
			"byteOffset":4025376,
			"target":34962
		},
		{
			"buffer":0,
			"byteLength":671232,
			"byteOffset":5814432,
			"target":34963
		},
		{
			"buffer":0,
			"byteLength":1088,
			"byteOffset":6485664
		},
		{
			"buffer":0,
			"byteLength":120,
			"byteOffset":6486752
		},
		{
			"buffer":0,
			"byteLength":360,
			"byteOffset":6486872
		},
		{
			"buffer":0,
			"byteLength":480,
			"byteOffset":6487232
		},
		{
			"buffer":0,
			"byteLength":360,
			"byteOffset":6487712
		},
		{
			"buffer":0,
			"byteLength":360,
			"byteOffset":6488072
		},
		{
			"buffer":0,
			"byteLength":480,
			"byteOffset":6488432
		},
		{
			"buffer":0,
			"byteLength":360,
			"byteOffset":6488912
		},
		{
			"buffer":0,
			"byteLength":360,
			"byteOffset":6489272
		},
		{
			"buffer":0,
			"byteLength":480,
			"byteOffset":6489632
		},
		{
			"buffer":0,
			"byteLength":360,
			"byteOffset":6490112
		},
		{
			"buffer":0,
			"byteLength":360,
			"byteOffset":6490472
		},
		{
			"buffer":0,
			"byteLength":480,
			"byteOffset":6490832
		},
		{
			"buffer":0,
			"byteLength":360,
			"byteOffset":6491312
		},
		{
			"buffer":0,
			"byteLength":360,
			"byteOffset":6491672
		},
		{
			"buffer":0,
			"byteLength":480,
			"byteOffset":6492032
		},
		{
			"buffer":0,
			"byteLength":360,
			"byteOffset":6492512
		},
		{
			"buffer":0,
			"byteLength":360,
			"byteOffset":6492872
		},
		{
			"buffer":0,
			"byteLength":480,
			"byteOffset":6493232
		},
		{
			"buffer":0,
			"byteLength":360,
			"byteOffset":6493712
		},
		{
			"buffer":0,
			"byteLength":360,
			"byteOffset":6494072
		},
		{
			"buffer":0,
			"byteLength":480,
			"byteOffset":6494432
		},
		{
			"buffer":0,
			"byteLength":360,
			"byteOffset":6494912
		},
		{
			"buffer":0,
			"byteLength":360,
			"byteOffset":6495272
		},
		{
			"buffer":0,
			"byteLength":480,
			"byteOffset":6495632
		},
		{
			"buffer":0,
			"byteLength":360,
			"byteOffset":6496112
		},
		{
			"buffer":0,
			"byteLength":360,
			"byteOffset":6496472
		},
		{
			"buffer":0,
			"byteLength":480,
			"byteOffset":6496832
		},
		{
			"buffer":0,
			"byteLength":360,
			"byteOffset":6497312
		},
		{
			"buffer":0,
			"byteLength":360,
			"byteOffset":6497672
		},
		{
			"buffer":0,
			"byteLength":480,
			"byteOffset":6498032
		},
		{
			"buffer":0,
			"byteLength":360,
			"byteOffset":6498512
		},
		{
			"buffer":0,
			"byteLength":360,
			"byteOffset":6498872
		},
		{
			"buffer":0,
			"byteLength":480,
			"byteOffset":6499232
		},
		{
			"buffer":0,
			"byteLength":360,
			"byteOffset":6499712
		},
		{
			"buffer":0,
			"byteLength":360,
			"byteOffset":6500072
		},
		{
			"buffer":0,
			"byteLength":480,
			"byteOffset":6500432
		},
		{
			"buffer":0,
			"byteLength":360,
			"byteOffset":6500912
		},
		{
			"buffer":0,
			"byteLength":360,
			"byteOffset":6501272
		},
		{
			"buffer":0,
			"byteLength":480,
			"byteOffset":6501632
		},
		{
			"buffer":0,
			"byteLength":360,
			"byteOffset":6502112
		},
		{
			"buffer":0,
			"byteLength":360,
			"byteOffset":6502472
		},
		{
			"buffer":0,
			"byteLength":480,
			"byteOffset":6502832
		},
		{
			"buffer":0,
			"byteLength":360,
			"byteOffset":6503312
		},
		{
			"buffer":0,
			"byteLength":360,
			"byteOffset":6503672
		},
		{
			"buffer":0,
			"byteLength":480,
			"byteOffset":6504032
		},
		{
			"buffer":0,
			"byteLength":360,
			"byteOffset":6504512
		},
		{
			"buffer":0,
			"byteLength":360,
			"byteOffset":6504872
		},
		{
			"buffer":0,
			"byteLength":480,
			"byteOffset":6505232
		},
		{
			"buffer":0,
			"byteLength":360,
			"byteOffset":6505712
		},
		{
			"buffer":0,
			"byteLength":360,
			"byteOffset":6506072
		},
		{
			"buffer":0,
			"byteLength":480,
			"byteOffset":6506432
		},
		{
			"buffer":0,
			"byteLength":360,
			"byteOffset":6506912
		}
	],
	"buffers":[
		{
			"byteLength":6507272,
			"uri":"chel_sub_div.bin"
		}
	]
}
