{
	"asset":{
		"generator":"Khronos glTF Blender I/O v4.0.44",
		"version":"2.0"
	},
	"scene":0,
	"scenes":[
		{
			"name":"Scene",
			"nodes":[
				16
			]
		}
	],
	"nodes":[
		{
			"name":"Bone.003",
			"rotation":[
				-0.1965039074420929,
				-2.1806940253554785e-08,
				0.6833219528198242,
				0.7031765580177307
			],
			"scale":[
				1,
				1,
				0.9999999403953552
			],
			"translation":[
				7.06349965184927e-08,
				0.38286834955215454,
				9.313225746154785e-10
			]
		},
		{
			"children":[
				0
			],
			"name":"Bone.001",
			"rotation":[
				0.0061612254939973354,
				-3.5472176307393966e-09,
				0.7220129370689392,
				0.6918521523475647
			],
			"scale":[
				0.9999999403953552,
				0.9999999403953552,
				0.9999999403953552
			],
			"translation":[
				0,
				0.9999999403953552,
				0
			]
		},
		{
			"name":"Bone.004",
			"rotation":[
				-0.23129726946353912,
				1.0981785258934451e-08,
				-0.6784489154815674,
				0.6972866058349609
			],
			"translation":[
				-1.3271346688270569e-08,
				0.38788437843322754,
				-6.51925802230835e-09
			]
		},
		{
			"children":[
				2
			],
			"name":"Bone.002",
			"rotation":[
				-0.028931327164173126,
				-8.952319774380157e-09,
				-0.7282199859619141,
				0.6847325563430786
			],
			"scale":[
				0.9999999403953552,
				0.9999999403953552,
				0.9999999403953552
			],
			"translation":[
				0,
				0.9999999403953552,
				0
			]
		},
		{
			"name":"Bone.009",
			"rotation":[
				0.1433424949645996,
				-3.870434284181101e-08,
				-0.014315306209027767,
				0.9895696043968201
			],
			"scale":[
				1,
				0.9999998807907104,
				1
			],
			"translation":[
				0,
				0.9999999403953552,
				0
			]
		},
		{
			"children":[
				1,
				3,
				4
			],
			"name":"Bone",
			"scale":[
				0.9999999403953552,
				0.9999999403953552,
				0.9999999403953552
			]
		},
		{
			"name":"Bone.006",
			"rotation":[
				-0.5704426169395447,
				-4.645099949129872e-08,
				-0.17725341022014618,
				0.8019828200340271
			],
			"translation":[
				-2.0330004346647e-09,
				0.40131130814552307,
				7.566995918750763e-10
			]
		},
		{
			"children":[
				6
			],
			"name":"Bone.005",
			"rotation":[
				-0.5859333276748657,
				0.4078611135482788,
				0.547624945640564,
				0.4363926351070404
			],
			"scale":[
				0.9999999403953552,
				0.9999998807907104,
				0.9999999403953552
			]
		},
		{
			"name":"Bone.008",
			"rotation":[
				-0.5706108212471008,
				1.3961074074586577e-08,
				0.18330159783363342,
				0.8005022406578064
			],
			"scale":[
				0.9999999403953552,
				1,
				0.9999999403953552
			],
			"translation":[
				-1.8571228999064715e-09,
				0.4236421287059784,
				9.778887033462524e-09
			]
		},
		{
			"children":[
				8
			],
			"name":"Bone.007",
			"rotation":[
				-0.6241784691810608,
				-0.3687206208705902,
				-0.5428900122642517,
				0.42393019795417786
			],
			"scale":[
				0.9999999403953552,
				0.9999999403953552,
				0.9999999403953552
			]
		},
		{
			"mesh":0,
			"name":"Cube",
			"skin":0
		},
		{
			"mesh":1,
			"name":"Cube.001",
			"skin":0
		},
		{
			"mesh":2,
			"name":"Cube.002",
			"skin":0
		},
		{
			"mesh":3,
			"name":"Cube.003",
			"skin":0
		},
		{
			"mesh":4,
			"name":"Cube.004",
			"skin":0
		},
		{
			"mesh":5,
			"name":"Cube.005",
			"skin":0
		},
		{
			"children":[
				10,
				11,
				12,
				13,
				14,
				15,
				5,
				7,
				9
			],
			"name":"Armature",
			"scale":[
				7.7327399253845215,
				7.7327399253845215,
				7.7327399253845215
			]
		}
	],
	"animations":[
		{
			"channels":[
				{
					"sampler":0,
					"target":{
						"node":5,
						"path":"translation"
					}
				},
				{
					"sampler":1,
					"target":{
						"node":5,
						"path":"rotation"
					}
				},
				{
					"sampler":2,
					"target":{
						"node":1,
						"path":"translation"
					}
				},
				{
					"sampler":3,
					"target":{
						"node":1,
						"path":"rotation"
					}
				},
				{
					"sampler":4,
					"target":{
						"node":0,
						"path":"translation"
					}
				},
				{
					"sampler":5,
					"target":{
						"node":0,
						"path":"rotation"
					}
				},
				{
					"sampler":6,
					"target":{
						"node":3,
						"path":"translation"
					}
				},
				{
					"sampler":7,
					"target":{
						"node":3,
						"path":"rotation"
					}
				},
				{
					"sampler":8,
					"target":{
						"node":2,
						"path":"translation"
					}
				},
				{
					"sampler":9,
					"target":{
						"node":2,
						"path":"rotation"
					}
				},
				{
					"sampler":10,
					"target":{
						"node":4,
						"path":"translation"
					}
				},
				{
					"sampler":11,
					"target":{
						"node":4,
						"path":"rotation"
					}
				},
				{
					"sampler":12,
					"target":{
						"node":7,
						"path":"translation"
					}
				},
				{
					"sampler":13,
					"target":{
						"node":7,
						"path":"rotation"
					}
				},
				{
					"sampler":14,
					"target":{
						"node":6,
						"path":"translation"
					}
				},
				{
					"sampler":15,
					"target":{
						"node":6,
						"path":"rotation"
					}
				},
				{
					"sampler":16,
					"target":{
						"node":9,
						"path":"translation"
					}
				},
				{
					"sampler":17,
					"target":{
						"node":9,
						"path":"rotation"
					}
				},
				{
					"sampler":18,
					"target":{
						"node":8,
						"path":"translation"
					}
				},
				{
					"sampler":19,
					"target":{
						"node":8,
						"path":"rotation"
					}
				}
			],
			"name":"ArmatureAction",
			"samplers":[
				{
					"input":33,
					"interpolation":"LINEAR",
					"output":34
				},
				{
					"input":33,
					"interpolation":"LINEAR",
					"output":35
				},
				{
					"input":33,
					"interpolation":"LINEAR",
					"output":36
				},
				{
					"input":33,
					"interpolation":"LINEAR",
					"output":37
				},
				{
					"input":33,
					"interpolation":"LINEAR",
					"output":38
				},
				{
					"input":33,
					"interpolation":"LINEAR",
					"output":39
				},
				{
					"input":33,
					"interpolation":"LINEAR",
					"output":40
				},
				{
					"input":33,
					"interpolation":"LINEAR",
					"output":41
				},
				{
					"input":33,
					"interpolation":"LINEAR",
					"output":42
				},
				{
					"input":33,
					"interpolation":"LINEAR",
					"output":43
				},
				{
					"input":33,
					"interpolation":"LINEAR",
					"output":44
				},
				{
					"input":33,
					"interpolation":"LINEAR",
					"output":45
				},
				{
					"input":33,
					"interpolation":"LINEAR",
					"output":46
				},
				{
					"input":33,
					"interpolation":"LINEAR",
					"output":47
				},
				{
					"input":33,
					"interpolation":"LINEAR",
					"output":48
				},
				{
					"input":33,
					"interpolation":"LINEAR",
					"output":49
				},
				{
					"input":33,
					"interpolation":"LINEAR",
					"output":50
				},
				{
					"input":33,
					"interpolation":"LINEAR",
					"output":51
				},
				{
					"input":33,
					"interpolation":"LINEAR",
					"output":52
				},
				{
					"input":33,
					"interpolation":"LINEAR",
					"output":53
				}
			]
		}
	],
	"materials":[
		{
			"doubleSided":true,
			"name":"Material",
			"pbrMetallicRoughness":{
				"baseColorFactor":[
					0.800000011920929,
					0.800000011920929,
					0.800000011920929,
					1
				],
				"metallicFactor":0,
				"roughnessFactor":0.5
			}
		}
	],
	"meshes":[
		{
			"name":"Cube",
			"primitives":[
				{
					"attributes":{
						"POSITION":0,
						"NORMAL":1,
						"TEXCOORD_0":2,
						"JOINTS_0":3,
						"WEIGHTS_0":4
					},
					"indices":5,
					"material":0
				}
			]
		},
		{
			"name":"Cube.001",
			"primitives":[
				{
					"attributes":{
						"POSITION":7,
						"NORMAL":8,
						"TEXCOORD_0":9,
						"JOINTS_0":10,
						"WEIGHTS_0":11
					},
					"indices":12
				}
			]
		},
		{
			"name":"Cube.002",
			"primitives":[
				{
					"attributes":{
						"POSITION":13,
						"NORMAL":14,
						"TEXCOORD_0":15,
						"JOINTS_0":16,
						"WEIGHTS_0":17
					},
					"indices":12
				}
			]
		},
		{
			"name":"Cube.003",
			"primitives":[
				{
					"attributes":{
						"POSITION":18,
						"NORMAL":19,
						"TEXCOORD_0":20,
						"JOINTS_0":21,
						"WEIGHTS_0":22
					},
					"indices":12
				}
			]
		},
		{
			"name":"Cube.004",
			"primitives":[
				{
					"attributes":{
						"POSITION":23,
						"NORMAL":24,
						"TEXCOORD_0":25,
						"JOINTS_0":26,
						"WEIGHTS_0":27
					},
					"indices":12
				}
			]
		},
		{
			"name":"Cube.005",
			"primitives":[
				{
					"attributes":{
						"POSITION":28,
						"NORMAL":29,
						"TEXCOORD_0":30,
						"JOINTS_0":31,
						"WEIGHTS_0":32
					},
					"indices":12
				}
			]
		}
	],
	"skins":[
		{
			"inverseBindMatrices":6,
			"joints":[
				5,
				1,
				0,
				3,
				2,
				4,
				7,
				6,
				9,
				8
			],
			"name":"Armature"
		}
	],
	"accessors":[
		{
			"bufferView":0,
			"componentType":5126,
			"count":24,
			"max":[
				0.9999999403953552,
				8.153676986694336,
				0.9999999403953552
			],
			"min":[
				-0.9999999403953552,
				-0.0867762565612793,
				-0.9999999403953552
			],
			"type":"VEC3"
		},
		{
			"bufferView":1,
			"componentType":5126,
			"count":24,
			"type":"VEC3"
		},
		{
			"bufferView":2,
			"componentType":5126,
			"count":24,
			"type":"VEC2"
		},
		{
			"bufferView":3,
			"componentType":5121,
			"count":24,
			"type":"VEC4"
		},
		{
			"bufferView":4,
			"componentType":5126,
			"count":24,
			"type":"VEC4"
		},
		{
			"bufferView":5,
			"componentType":5123,
			"count":36,
			"type":"SCALAR"
		},
		{
			"bufferView":6,
			"componentType":5126,
			"count":10,
			"type":"MAT4"
		},
		{
			"bufferView":7,
			"componentType":5126,
			"count":24,
			"max":[
				-1.6604599952697754,
				7.906554698944092,
				0.9999999403953552
			],
			"min":[
				-3.6604599952697754,
				5.021345615386963,
				-0.9999999403953552
			],
			"type":"VEC3"
		},
		{
			"bufferView":8,
			"componentType":5126,
			"count":24,
			"type":"VEC3"
		},
		{
			"bufferView":9,
			"componentType":5126,
			"count":24,
			"type":"VEC2"
		},
		{
			"bufferView":10,
			"componentType":5121,
			"count":24,
			"type":"VEC4"
		},
		{
			"bufferView":11,
			"componentType":5126,
			"count":24,
			"type":"VEC4"
		},
		{
			"bufferView":12,
			"componentType":5123,
			"count":36,
			"type":"SCALAR"
		},
		{
			"bufferView":13,
			"componentType":5126,
			"count":24,
			"max":[
				3.7546682357788086,
				7.961422443389893,
				0.9999999403953552
			],
			"min":[
				1.7546682357788086,
				4.966477870941162,
				-0.9999999403953552
			],
			"type":"VEC3"
		},
		{
			"bufferView":14,
			"componentType":5126,
			"count":24,
			"type":"VEC3"
		},
		{
			"bufferView":15,
			"componentType":5126,
			"count":24,
			"type":"VEC2"
		},
		{
			"bufferView":16,
			"componentType":5121,
			"count":24,
			"type":"VEC4"
		},
		{
			"bufferView":17,
			"componentType":5126,
			"count":24,
			"type":"VEC4"
		},
		{
			"bufferView":18,
			"componentType":5126,
			"count":24,
			"max":[
				3.7546682357788086,
				-0.38064277172088623,
				0.9999999403953552
			],
			"min":[
				1.7546682357788086,
				-3.3755874633789062,
				-0.9999999403953552
			],
			"type":"VEC3"
		},
		{
			"bufferView":19,
			"componentType":5126,
			"count":24,
			"type":"VEC3"
		},
		{
			"bufferView":20,
			"componentType":5126,
			"count":24,
			"type":"VEC2"
		},
		{
			"bufferView":21,
			"componentType":5121,
			"count":24,
			"type":"VEC4"
		},
		{
			"bufferView":22,
			"componentType":5126,
			"count":24,
			"type":"VEC4"
		},
		{
			"bufferView":23,
			"componentType":5126,
			"count":24,
			"max":[
				-1.6604599952697754,
				-0.5020216703414917,
				0.9999999403953552
			],
			"min":[
				-3.6604599952697754,
				-3.38723087310791,
				-0.9999999403953552
			],
			"type":"VEC3"
		},
		{
			"bufferView":24,
			"componentType":5126,
			"count":24,
			"type":"VEC3"
		},
		{
			"bufferView":25,
			"componentType":5126,
			"count":24,
			"type":"VEC2"
		},
		{
			"bufferView":26,
			"componentType":5121,
			"count":24,
			"type":"VEC4"
		},
		{
			"bufferView":27,
			"componentType":5126,
			"count":24,
			"type":"VEC4"
		},
		{
			"bufferView":28,
			"componentType":5126,
			"count":24,
			"max":[
				0.9720086455345154,
				10.850494384765625,
				0.9999999403953552
			],
			"min":[
				-1.0279911756515503,
				9.052061080932617,
				-0.9999999403953552
			],
			"type":"VEC3"
		},
		{
			"bufferView":29,
			"componentType":5126,
			"count":24,
			"type":"VEC3"
		},
		{
			"bufferView":30,
			"componentType":5126,
			"count":24,
			"type":"VEC2"
		},
		{
			"bufferView":31,
			"componentType":5121,
			"count":24,
			"type":"VEC4"
		},
		{
			"bufferView":32,
			"componentType":5126,
			"count":24,
			"type":"VEC4"
		},
		{
			"bufferView":33,
			"componentType":5126,
			"count":30,
			"max":[
				1.25
			],
			"min":[
				0.041666666666666664
			],
			"type":"SCALAR"
		},
		{
			"bufferView":34,
			"componentType":5126,
			"count":30,
			"type":"VEC3"
		},
		{
			"bufferView":35,
			"componentType":5126,
			"count":30,
			"type":"VEC4"
		},
		{
			"bufferView":36,
			"componentType":5126,
			"count":30,
			"type":"VEC3"
		},
		{
			"bufferView":37,
			"componentType":5126,
			"count":30,
			"type":"VEC4"
		},
		{
			"bufferView":38,
			"componentType":5126,
			"count":30,
			"type":"VEC3"
		},
		{
			"bufferView":39,
			"componentType":5126,
			"count":30,
			"type":"VEC4"
		},
		{
			"bufferView":40,
			"componentType":5126,
			"count":30,
			"type":"VEC3"
		},
		{
			"bufferView":41,
			"componentType":5126,
			"count":30,
			"type":"VEC4"
		},
		{
			"bufferView":42,
			"componentType":5126,
			"count":30,
			"type":"VEC3"
		},
		{
			"bufferView":43,
			"componentType":5126,
			"count":30,
			"type":"VEC4"
		},
		{
			"bufferView":44,
			"componentType":5126,
			"count":30,
			"type":"VEC3"
		},
		{
			"bufferView":45,
			"componentType":5126,
			"count":30,
			"type":"VEC4"
		},
		{
			"bufferView":46,
			"componentType":5126,
			"count":30,
			"type":"VEC3"
		},
		{
			"bufferView":47,
			"componentType":5126,
			"count":30,
			"type":"VEC4"
		},
		{
			"bufferView":48,
			"componentType":5126,
			"count":30,
			"type":"VEC3"
		},
		{
			"bufferView":49,
			"componentType":5126,
			"count":30,
			"type":"VEC4"
		},
		{
			"bufferView":50,
			"componentType":5126,
			"count":30,
			"type":"VEC3"
		},
		{
			"bufferView":51,
			"componentType":5126,
			"count":30,
			"type":"VEC4"
		},
		{
			"bufferView":52,
			"componentType":5126,
			"count":30,
			"type":"VEC3"
		},
		{
			"bufferView":53,
			"componentType":5126,
			"count":30,
			"type":"VEC4"
		}
	],
	"bufferViews":[
		{
			"buffer":0,
			"byteLength":288,
			"byteOffset":0,
			"target":34962
		},
		{
			"buffer":0,
			"byteLength":288,
			"byteOffset":288,
			"target":34962
		},
		{
			"buffer":0,
			"byteLength":192,
			"byteOffset":576,
			"target":34962
		},
		{
			"buffer":0,
			"byteLength":96,
			"byteOffset":768,
			"target":34962
		},
		{
			"buffer":0,
			"byteLength":384,
			"byteOffset":864,
			"target":34962
		},
		{
			"buffer":0,
			"byteLength":72,
			"byteOffset":1248,
			"target":34963
		},
		{
			"buffer":0,
			"byteLength":640,
			"byteOffset":1320
		},
		{
			"buffer":0,
			"byteLength":288,
			"byteOffset":1960,
			"target":34962
		},
		{
			"buffer":0,
			"byteLength":288,
			"byteOffset":2248,
			"target":34962
		},
		{
			"buffer":0,
			"byteLength":192,
			"byteOffset":2536,
			"target":34962
		},
		{
			"buffer":0,
			"byteLength":96,
			"byteOffset":2728,
			"target":34962
		},
		{
			"buffer":0,
			"byteLength":384,
			"byteOffset":2824,
			"target":34962
		},
		{
			"buffer":0,
			"byteLength":72,
			"byteOffset":3208,
			"target":34963
		},
		{
			"buffer":0,
			"byteLength":288,
			"byteOffset":3280,
			"target":34962
		},
		{
			"buffer":0,
			"byteLength":288,
			"byteOffset":3568,
			"target":34962
		},
		{
			"buffer":0,
			"byteLength":192,
			"byteOffset":3856,
			"target":34962
		},
		{
			"buffer":0,
			"byteLength":96,
			"byteOffset":4048,
			"target":34962
		},
		{
			"buffer":0,
			"byteLength":384,
			"byteOffset":4144,
			"target":34962
		},
		{
			"buffer":0,
			"byteLength":288,
			"byteOffset":4528,
			"target":34962
		},
		{
			"buffer":0,
			"byteLength":288,
			"byteOffset":4816,
			"target":34962
		},
		{
			"buffer":0,
			"byteLength":192,
			"byteOffset":5104,
			"target":34962
		},
		{
			"buffer":0,
			"byteLength":96,
			"byteOffset":5296,
			"target":34962
		},
		{
			"buffer":0,
			"byteLength":384,
			"byteOffset":5392,
			"target":34962
		},
		{
			"buffer":0,
			"byteLength":288,
			"byteOffset":5776,
			"target":34962
		},
		{
			"buffer":0,
			"byteLength":288,
			"byteOffset":6064,
			"target":34962
		},
		{
			"buffer":0,
			"byteLength":192,
			"byteOffset":6352,
			"target":34962
		},
		{
			"buffer":0,
			"byteLength":96,
			"byteOffset":6544,
			"target":34962
		},
		{
			"buffer":0,
			"byteLength":384,
			"byteOffset":6640,
			"target":34962
		},
		{
			"buffer":0,
			"byteLength":288,
			"byteOffset":7024,
			"target":34962
		},
		{
			"buffer":0,
			"byteLength":288,
			"byteOffset":7312,
			"target":34962
		},
		{
			"buffer":0,
			"byteLength":192,
			"byteOffset":7600,
			"target":34962
		},
		{
			"buffer":0,
			"byteLength":96,
			"byteOffset":7792,
			"target":34962
		},
		{
			"buffer":0,
			"byteLength":384,
			"byteOffset":7888,
			"target":34962
		},
		{
			"buffer":0,
			"byteLength":120,
			"byteOffset":8272
		},
		{
			"buffer":0,
			"byteLength":360,
			"byteOffset":8392
		},
		{
			"buffer":0,
			"byteLength":480,
			"byteOffset":8752
		},
		{
			"buffer":0,
			"byteLength":360,
			"byteOffset":9232
		},
		{
			"buffer":0,
			"byteLength":480,
			"byteOffset":9592
		},
		{
			"buffer":0,
			"byteLength":360,
			"byteOffset":10072
		},
		{
			"buffer":0,
			"byteLength":480,
			"byteOffset":10432
		},
		{
			"buffer":0,
			"byteLength":360,
			"byteOffset":10912
		},
		{
			"buffer":0,
			"byteLength":480,
			"byteOffset":11272
		},
		{
			"buffer":0,
			"byteLength":360,
			"byteOffset":11752
		},
		{
			"buffer":0,
			"byteLength":480,
			"byteOffset":12112
		},
		{
			"buffer":0,
			"byteLength":360,
			"byteOffset":12592
		},
		{
			"buffer":0,
			"byteLength":480,
			"byteOffset":12952
		},
		{
			"buffer":0,
			"byteLength":360,
			"byteOffset":13432
		},
		{
			"buffer":0,
			"byteLength":480,
			"byteOffset":13792
		},
		{
			"buffer":0,
			"byteLength":360,
			"byteOffset":14272
		},
		{
			"buffer":0,
			"byteLength":480,
			"byteOffset":14632
		},
		{
			"buffer":0,
			"byteLength":360,
			"byteOffset":15112
		},
		{
			"buffer":0,
			"byteLength":480,
			"byteOffset":15472
		},
		{
			"buffer":0,
			"byteLength":360,
			"byteOffset":15952
		},
		{
			"buffer":0,
			"byteLength":480,
			"byteOffset":16312
		}
	],
	"buffers":[
		{
			"byteLength":16792,
			"uri":"chelik_animation.bin"
		}
	]
}
