{
	"asset":{
		"generator":"Khronos glTF Blender I/O v4.0.44",
		"version":"2.0"
	},
	"scene":0,
	"scenes":[
		{
			"name":"Scene",
			"nodes":[
				11
			]
		}
	],
	"nodes":[
		{
			"name":"Bone.002",
			"rotation":[
				0.7071067094802856,
				-5.33850581518891e-08,
				-1.152023116901546e-07,
				0.7071068286895752
			],
			"scale":[
				0.9999999403953552,
				0.9999998807907104,
				0.9999998807907104
			],
			"translation":[
				0,
				0.3034325838088989,
				5.960464477539063e-08
			]
		},
		{
			"children":[
				0
			],
			"name":"Bone.001",
			"rotation":[
				0.7071067690849304,
				-3.0908619663705394e-08,
				-3.0908619663705394e-08,
				0.7071067690849304
			],
			"scale":[
				0.9999999403953552,
				0.9999999403953552,
				0.9999999403953552
			],
			"translation":[
				0,
				0.9999999403953552,
				0
			]
		},
		{
			"name":"Bone.006",
			"rotation":[
				-0.7071068286895752,
				0,
				0,
				0.7071067094802856
			],
			"scale":[
				0.9999999403953552,
				1,
				1
			],
			"translation":[
				0,
				0.34614524245262146,
				0
			]
		},
		{
			"children":[
				2
			],
			"name":"Bone.005",
			"rotation":[
				-0.7071067690849304,
				0,
				0,
				0.7071067690849304
			],
			"scale":[
				0.9999999403953552,
				0.9999998807907104,
				0.9999998807907104
			],
			"translation":[
				0,
				0.9999999403953552,
				0
			]
		},
		{
			"name":"Bone.007",
			"scale":[
				0.9999999403953552,
				0.9999999403953552,
				0.9999999403953552
			],
			"translation":[
				0,
				0.9999999403953552,
				0
			]
		},
		{
			"children":[
				1,
				3,
				4
			],
			"name":"Bone",
			"scale":[
				0.9999999403953552,
				0.9999999403953552,
				0.9999999403953552
			]
		},
		{
			"name":"Bone.010",
			"rotation":[
				-0.7071067690849304,
				-3.0908619663705394e-08,
				3.0908619663705394e-08,
				0.7071067690849304
			],
			"scale":[
				0.9999999403953552,
				0.9999999403953552,
				0.9999999403953552
			],
			"translation":[
				0,
				0.28259438276290894,
				0
			]
		},
		{
			"children":[
				6
			],
			"name":"Bone.008",
			"rotation":[
				0,
				0.7071067690849304,
				0.7071067690849304,
				0
			],
			"scale":[
				0.9999999403953552,
				0.9999999403953552,
				0.9999999403953552
			]
		},
		{
			"name":"Bone.011",
			"rotation":[
				-0.7071067690849304,
				0,
				0,
				0.7071067690849304
			],
			"scale":[
				0.9999999403953552,
				0.9999999403953552,
				0.9999999403953552
			],
			"translation":[
				0,
				0.29110974073410034,
				0
			]
		},
		{
			"children":[
				8
			],
			"name":"Bone.009",
			"rotation":[
				-0.7071067690849304,
				0,
				0,
				0.7071067690849304
			],
			"scale":[
				0.9999999403953552,
				0.9999999403953552,
				0.9999999403953552
			]
		},
		{
			"mesh":0,
			"name":"Cube",
			"skin":0
		},
		{
			"children":[
				10,
				5,
				7,
				9
			],
			"name":"Armature",
			"scale":[
				10.156794548034668,
				10.156794548034668,
				10.156794548034668
			]
		}
	],
	"animations":[
		{
			"channels":[
				{
					"sampler":0,
					"target":{
						"node":5,
						"path":"translation"
					}
				},
				{
					"sampler":1,
					"target":{
						"node":5,
						"path":"rotation"
					}
				},
				{
					"sampler":2,
					"target":{
						"node":1,
						"path":"translation"
					}
				},
				{
					"sampler":3,
					"target":{
						"node":1,
						"path":"rotation"
					}
				},
				{
					"sampler":4,
					"target":{
						"node":0,
						"path":"translation"
					}
				},
				{
					"sampler":5,
					"target":{
						"node":0,
						"path":"rotation"
					}
				},
				{
					"sampler":6,
					"target":{
						"node":3,
						"path":"translation"
					}
				},
				{
					"sampler":7,
					"target":{
						"node":3,
						"path":"rotation"
					}
				},
				{
					"sampler":8,
					"target":{
						"node":2,
						"path":"translation"
					}
				},
				{
					"sampler":9,
					"target":{
						"node":2,
						"path":"rotation"
					}
				},
				{
					"sampler":10,
					"target":{
						"node":4,
						"path":"translation"
					}
				},
				{
					"sampler":11,
					"target":{
						"node":4,
						"path":"rotation"
					}
				},
				{
					"sampler":12,
					"target":{
						"node":7,
						"path":"translation"
					}
				},
				{
					"sampler":13,
					"target":{
						"node":7,
						"path":"rotation"
					}
				},
				{
					"sampler":14,
					"target":{
						"node":6,
						"path":"translation"
					}
				},
				{
					"sampler":15,
					"target":{
						"node":6,
						"path":"rotation"
					}
				},
				{
					"sampler":16,
					"target":{
						"node":9,
						"path":"translation"
					}
				},
				{
					"sampler":17,
					"target":{
						"node":9,
						"path":"rotation"
					}
				},
				{
					"sampler":18,
					"target":{
						"node":8,
						"path":"translation"
					}
				},
				{
					"sampler":19,
					"target":{
						"node":8,
						"path":"rotation"
					}
				}
			],
			"name":"ArmatureAction",
			"samplers":[
				{
					"input":7,
					"interpolation":"LINEAR",
					"output":8
				},
				{
					"input":7,
					"interpolation":"LINEAR",
					"output":9
				},
				{
					"input":7,
					"interpolation":"LINEAR",
					"output":10
				},
				{
					"input":7,
					"interpolation":"LINEAR",
					"output":11
				},
				{
					"input":7,
					"interpolation":"LINEAR",
					"output":12
				},
				{
					"input":7,
					"interpolation":"LINEAR",
					"output":13
				},
				{
					"input":7,
					"interpolation":"LINEAR",
					"output":14
				},
				{
					"input":7,
					"interpolation":"LINEAR",
					"output":15
				},
				{
					"input":7,
					"interpolation":"LINEAR",
					"output":16
				},
				{
					"input":7,
					"interpolation":"LINEAR",
					"output":17
				},
				{
					"input":7,
					"interpolation":"LINEAR",
					"output":18
				},
				{
					"input":7,
					"interpolation":"LINEAR",
					"output":19
				},
				{
					"input":7,
					"interpolation":"LINEAR",
					"output":20
				},
				{
					"input":7,
					"interpolation":"LINEAR",
					"output":21
				},
				{
					"input":7,
					"interpolation":"LINEAR",
					"output":22
				},
				{
					"input":7,
					"interpolation":"LINEAR",
					"output":23
				},
				{
					"input":7,
					"interpolation":"LINEAR",
					"output":24
				},
				{
					"input":7,
					"interpolation":"LINEAR",
					"output":25
				},
				{
					"input":7,
					"interpolation":"LINEAR",
					"output":26
				},
				{
					"input":7,
					"interpolation":"LINEAR",
					"output":27
				}
			]
		}
	],
	"materials":[
		{
			"doubleSided":true,
			"name":"Material",
			"pbrMetallicRoughness":{
				"baseColorFactor":[
					0.800000011920929,
					0.800000011920929,
					0.800000011920929,
					1
				],
				"metallicFactor":0,
				"roughnessFactor":0.5
			}
		}
	],
	"meshes":[
		{
			"name":"Cube",
			"primitives":[
				{
					"attributes":{
						"POSITION":0,
						"NORMAL":1,
						"TEXCOORD_0":2,
						"JOINTS_0":3,
						"WEIGHTS_0":4
					},
					"indices":5,
					"material":0
				}
			]
		}
	],
	"skins":[
		{
			"inverseBindMatrices":6,
			"joints":[
				5,
				1,
				0,
				3,
				2,
				4,
				7,
				6,
				9,
				8
			],
			"name":"Armature"
		}
	],
	"accessors":[
		{
			"bufferView":0,
			"componentType":5126,
			"count":184,
			"max":[
				0.9999999403953552,
				13.525070190429688,
				4.1130595207214355
			],
			"min":[
				-0.9999999403953552,
				-2.8597681522369385,
				-4.3182597160339355
			],
			"type":"VEC3"
		},
		{
			"bufferView":1,
			"componentType":5126,
			"count":184,
			"type":"VEC3"
		},
		{
			"bufferView":2,
			"componentType":5126,
			"count":184,
			"type":"VEC2"
		},
		{
			"bufferView":3,
			"componentType":5121,
			"count":184,
			"type":"VEC4"
		},
		{
			"bufferView":4,
			"componentType":5126,
			"count":184,
			"type":"VEC4"
		},
		{
			"bufferView":5,
			"componentType":5123,
			"count":396,
			"type":"SCALAR"
		},
		{
			"bufferView":6,
			"componentType":5126,
			"count":10,
			"type":"MAT4"
		},
		{
			"bufferView":7,
			"componentType":5126,
			"count":10,
			"max":[
				0.4166666666666667
			],
			"min":[
				0.041666666666666664
			],
			"type":"SCALAR"
		},
		{
			"bufferView":8,
			"componentType":5126,
			"count":10,
			"type":"VEC3"
		},
		{
			"bufferView":9,
			"componentType":5126,
			"count":10,
			"type":"VEC4"
		},
		{
			"bufferView":10,
			"componentType":5126,
			"count":10,
			"type":"VEC3"
		},
		{
			"bufferView":11,
			"componentType":5126,
			"count":10,
			"type":"VEC4"
		},
		{
			"bufferView":12,
			"componentType":5126,
			"count":10,
			"type":"VEC3"
		},
		{
			"bufferView":13,
			"componentType":5126,
			"count":10,
			"type":"VEC4"
		},
		{
			"bufferView":14,
			"componentType":5126,
			"count":10,
			"type":"VEC3"
		},
		{
			"bufferView":15,
			"componentType":5126,
			"count":10,
			"type":"VEC4"
		},
		{
			"bufferView":16,
			"componentType":5126,
			"count":10,
			"type":"VEC3"
		},
		{
			"bufferView":17,
			"componentType":5126,
			"count":10,
			"type":"VEC4"
		},
		{
			"bufferView":18,
			"componentType":5126,
			"count":10,
			"type":"VEC3"
		},
		{
			"bufferView":19,
			"componentType":5126,
			"count":10,
			"type":"VEC4"
		},
		{
			"bufferView":20,
			"componentType":5126,
			"count":10,
			"type":"VEC3"
		},
		{
			"bufferView":21,
			"componentType":5126,
			"count":10,
			"type":"VEC4"
		},
		{
			"bufferView":22,
			"componentType":5126,
			"count":10,
			"type":"VEC3"
		},
		{
			"bufferView":23,
			"componentType":5126,
			"count":10,
			"type":"VEC4"
		},
		{
			"bufferView":24,
			"componentType":5126,
			"count":10,
			"type":"VEC3"
		},
		{
			"bufferView":25,
			"componentType":5126,
			"count":10,
			"type":"VEC4"
		},
		{
			"bufferView":26,
			"componentType":5126,
			"count":10,
			"type":"VEC3"
		},
		{
			"bufferView":27,
			"componentType":5126,
			"count":10,
			"type":"VEC4"
		}
	],
	"bufferViews":[
		{
			"buffer":0,
			"byteLength":2208,
			"byteOffset":0,
			"target":34962
		},
		{
			"buffer":0,
			"byteLength":2208,
			"byteOffset":2208,
			"target":34962
		},
		{
			"buffer":0,
			"byteLength":1472,
			"byteOffset":4416,
			"target":34962
		},
		{
			"buffer":0,
			"byteLength":736,
			"byteOffset":5888,
			"target":34962
		},
		{
			"buffer":0,
			"byteLength":2944,
			"byteOffset":6624,
			"target":34962
		},
		{
			"buffer":0,
			"byteLength":792,
			"byteOffset":9568,
			"target":34963
		},
		{
			"buffer":0,
			"byteLength":640,
			"byteOffset":10360
		},
		{
			"buffer":0,
			"byteLength":40,
			"byteOffset":11000
		},
		{
			"buffer":0,
			"byteLength":120,
			"byteOffset":11040
		},
		{
			"buffer":0,
			"byteLength":160,
			"byteOffset":11160
		},
		{
			"buffer":0,
			"byteLength":120,
			"byteOffset":11320
		},
		{
			"buffer":0,
			"byteLength":160,
			"byteOffset":11440
		},
		{
			"buffer":0,
			"byteLength":120,
			"byteOffset":11600
		},
		{
			"buffer":0,
			"byteLength":160,
			"byteOffset":11720
		},
		{
			"buffer":0,
			"byteLength":120,
			"byteOffset":11880
		},
		{
			"buffer":0,
			"byteLength":160,
			"byteOffset":12000
		},
		{
			"buffer":0,
			"byteLength":120,
			"byteOffset":12160
		},
		{
			"buffer":0,
			"byteLength":160,
			"byteOffset":12280
		},
		{
			"buffer":0,
			"byteLength":120,
			"byteOffset":12440
		},
		{
			"buffer":0,
			"byteLength":160,
			"byteOffset":12560
		},
		{
			"buffer":0,
			"byteLength":120,
			"byteOffset":12720
		},
		{
			"buffer":0,
			"byteLength":160,
			"byteOffset":12840
		},
		{
			"buffer":0,
			"byteLength":120,
			"byteOffset":13000
		},
		{
			"buffer":0,
			"byteLength":160,
			"byteOffset":13120
		},
		{
			"buffer":0,
			"byteLength":120,
			"byteOffset":13280
		},
		{
			"buffer":0,
			"byteLength":160,
			"byteOffset":13400
		},
		{
			"buffer":0,
			"byteLength":120,
			"byteOffset":13560
		},
		{
			"buffer":0,
			"byteLength":160,
			"byteOffset":13680
		}
	],
	"buffers":[
		{
			"byteLength":13840,
			"uri":"rama.bin"
		}
	]
}
