{
	"asset":{
		"generator":"Khronos glTF Blender I/O v4.0.44",
		"version":"2.0"
	},
	"scene":0,
	"scenes":[
		{
			"name":"Scene",
			"nodes":[
				2
			]
		}
	],
	"nodes":[
		{
			"name":"Bone"
		},
		{
			"mesh":0,
			"name":"Sphere",
			"skin":0
		},
		{
			"children":[
				1,
				0
			],
			"name":"Armature"
		}
	],
	"meshes":[
		{
			"name":"Sphere.001",
			"primitives":[
				{
					"attributes":{
						"POSITION":0,
						"NORMAL":1,
						"TEXCOORD_0":2,
						"JOINTS_0":3,
						"WEIGHTS_0":4
					},
					"indices":5
				}
			]
		}
	],
	"skins":[
		{
			"inverseBindMatrices":6,
			"joints":[
				0
			],
			"name":"Armature"
		}
	],
	"accessors":[
		{
			"bufferView":0,
			"componentType":5126,
			"count":129033,
			"max":[
				1.128371000289917,
				1,
				0.9999948143959045
			],
			"min":[
				-1.0610556602478027,
				-1.5050880908966064,
				-0.9999895095825195
			],
			"type":"VEC3"
		},
		{
			"bufferView":1,
			"componentType":5126,
			"count":129033,
			"type":"VEC3"
		},
		{
			"bufferView":2,
			"componentType":5126,
			"count":129033,
			"type":"VEC2"
		},
		{
			"bufferView":3,
			"componentType":5121,
			"count":129033,
			"type":"VEC4"
		},
		{
			"bufferView":4,
			"componentType":5126,
			"count":129033,
			"type":"VEC4"
		},
		{
			"bufferView":5,
			"componentType":5125,
			"count":190512,
			"type":"SCALAR"
		},
		{
			"bufferView":6,
			"componentType":5126,
			"count":1,
			"type":"MAT4"
		}
	],
	"bufferViews":[
		{
			"buffer":0,
			"byteLength":1548396,
			"byteOffset":0,
			"target":34962
		},
		{
			"buffer":0,
			"byteLength":1548396,
			"byteOffset":1548396,
			"target":34962
		},
		{
			"buffer":0,
			"byteLength":1032264,
			"byteOffset":3096792,
			"target":34962
		},
		{
			"buffer":0,
			"byteLength":516132,
			"byteOffset":4129056,
			"target":34962
		},
		{
			"buffer":0,
			"byteLength":2064528,
			"byteOffset":4645188,
			"target":34962
		},
		{
			"buffer":0,
			"byteLength":762048,
			"byteOffset":6709716,
			"target":34963
		},
		{
			"buffer":0,
			"byteLength":64,
			"byteOffset":7471764
		}
	],
	"buffers":[
		{
			"byteLength":7471828,
			"uri":"spera_s_ushami.bin"
		}
	]
}
