{
	"asset":{
		"generator":"Khronos glTF Blender I/O v4.0.44",
		"version":"2.0"
	},
	"scene":0,
	"scenes":[
		{
			"name":"Scene",
			"nodes":[
				2
			]
		}
	],
	"nodes":[
		{
			"name":"Bone"
		},
		{
			"mesh":0,
			"name":"Sphere",
			"skin":0
		},
		{
			"children":[
				1,
				0
			],
			"name":"Armature"
		}
	],
	"meshes":[
		{
			"name":"Sphere.001",
			"primitives":[
				{
					"attributes":{
						"POSITION":0,
						"NORMAL":1,
						"TEXCOORD_0":2,
						"JOINTS_0":3,
						"WEIGHTS_0":4
					},
					"indices":5
				}
			]
		}
	],
	"skins":[
		{
			"inverseBindMatrices":6,
			"joints":[
				0
			],
			"name":"Armature"
		}
	],
	"accessors":[
		{
			"bufferView":0,
			"componentType":5126,
			"count":63520,
			"max":[
				1.4036762714385986,
				1.6887791156768799,
				0.9999948143959045
			],
			"min":[
				-1.3538734912872314,
				-1,
				-0.9999895095825195
			],
			"type":"VEC3"
		},
		{
			"bufferView":1,
			"componentType":5126,
			"count":63520,
			"type":"VEC3"
		},
		{
			"bufferView":2,
			"componentType":5126,
			"count":63520,
			"type":"VEC2"
		},
		{
			"bufferView":3,
			"componentType":5121,
			"count":63520,
			"type":"VEC4"
		},
		{
			"bufferView":4,
			"componentType":5126,
			"count":63520,
			"type":"VEC4"
		},
		{
			"bufferView":5,
			"componentType":5123,
			"count":92208,
			"type":"SCALAR"
		},
		{
			"bufferView":6,
			"componentType":5126,
			"count":1,
			"type":"MAT4"
		}
	],
	"bufferViews":[
		{
			"buffer":0,
			"byteLength":762240,
			"byteOffset":0,
			"target":34962
		},
		{
			"buffer":0,
			"byteLength":762240,
			"byteOffset":762240,
			"target":34962
		},
		{
			"buffer":0,
			"byteLength":508160,
			"byteOffset":1524480,
			"target":34962
		},
		{
			"buffer":0,
			"byteLength":254080,
			"byteOffset":2032640,
			"target":34962
		},
		{
			"buffer":0,
			"byteLength":1016320,
			"byteOffset":2286720,
			"target":34962
		},
		{
			"buffer":0,
			"byteLength":184416,
			"byteOffset":3303040,
			"target":34963
		},
		{
			"buffer":0,
			"byteLength":64,
			"byteOffset":3487456
		}
	],
	"buffers":[
		{
			"byteLength":3487520,
			"uri":"sphera_s_ushami.bin"
		}
	]
}
