{
	"asset":{
		"generator":"Khronos glTF Blender I/O v4.0.44",
		"version":"2.0"
	},
	"scene":0,
	"scenes":[
		{
			"name":"Scene",
			"nodes":[
				4
			]
		}
	],
	"nodes":[
		{
			"name":"Bone.001",
			"rotation":[
				-2.6692536181371906e-08,
				-2.6692536181371906e-08,
				-0.7071067690849304,
				0.7071067690849304
			],
			"translation":[
				0,
				1,
				0
			]
		},
		{
			"name":"Bone.002",
			"rotation":[
				-2.6692536181371906e-08,
				2.6692536181371906e-08,
				0.7071067690849304,
				0.7071067690849304
			],
			"translation":[
				0,
				1,
				0
			]
		},
		{
			"children":[
				0,
				1
			],
			"name":"Bone"
		},
		{
			"mesh":0,
			"name":"Cube",
			"skin":0
		},
		{
			"children":[
				3,
				2
			],
			"name":"Armature",
			"scale":[
				6.978153705596924,
				6.978153705596924,
				6.978153705596924
			]
		}
	],
	"animations":[
		{
			"channels":[
				{
					"sampler":0,
					"target":{
						"node":2,
						"path":"translation"
					}
				},
				{
					"sampler":1,
					"target":{
						"node":2,
						"path":"rotation"
					}
				},
				{
					"sampler":2,
					"target":{
						"node":0,
						"path":"translation"
					}
				},
				{
					"sampler":3,
					"target":{
						"node":0,
						"path":"rotation"
					}
				},
				{
					"sampler":4,
					"target":{
						"node":1,
						"path":"translation"
					}
				},
				{
					"sampler":5,
					"target":{
						"node":1,
						"path":"rotation"
					}
				}
			],
			"name":"ArmatureAction",
			"samplers":[
				{
					"input":7,
					"interpolation":"LINEAR",
					"output":8
				},
				{
					"input":7,
					"interpolation":"LINEAR",
					"output":9
				},
				{
					"input":7,
					"interpolation":"LINEAR",
					"output":10
				},
				{
					"input":7,
					"interpolation":"LINEAR",
					"output":11
				},
				{
					"input":7,
					"interpolation":"LINEAR",
					"output":12
				},
				{
					"input":7,
					"interpolation":"LINEAR",
					"output":13
				}
			]
		}
	],
	"materials":[
		{
			"doubleSided":true,
			"name":"Material",
			"pbrMetallicRoughness":{
				"baseColorFactor":[
					0.800000011920929,
					0.800000011920929,
					0.800000011920929,
					1
				],
				"metallicFactor":0,
				"roughnessFactor":0.5
			}
		}
	],
	"meshes":[
		{
			"name":"Cube",
			"primitives":[
				{
					"attributes":{
						"POSITION":0,
						"NORMAL":1,
						"TEXCOORD_0":2,
						"JOINTS_0":3,
						"WEIGHTS_0":4
					},
					"indices":5,
					"material":0
				}
			]
		}
	],
	"skins":[
		{
			"inverseBindMatrices":6,
			"joints":[
				2,
				0,
				1
			],
			"name":"Armature"
		}
	],
	"accessors":[
		{
			"bufferView":0,
			"componentType":5126,
			"count":56,
			"max":[
				3.7163333892822266,
				8.117945671081543,
				0.7280858755111694
			],
			"min":[
				-4.385550022125244,
				-1.281637191772461,
				-1.2719141244888306
			],
			"type":"VEC3"
		},
		{
			"bufferView":1,
			"componentType":5126,
			"count":56,
			"type":"VEC3"
		},
		{
			"bufferView":2,
			"componentType":5126,
			"count":56,
			"type":"VEC2"
		},
		{
			"bufferView":3,
			"componentType":5121,
			"count":56,
			"type":"VEC4"
		},
		{
			"bufferView":4,
			"componentType":5126,
			"count":56,
			"type":"VEC4"
		},
		{
			"bufferView":5,
			"componentType":5123,
			"count":108,
			"type":"SCALAR"
		},
		{
			"bufferView":6,
			"componentType":5126,
			"count":3,
			"type":"MAT4"
		},
		{
			"bufferView":7,
			"componentType":5126,
			"count":10,
			"max":[
				0.4166666666666667
			],
			"min":[
				0.041666666666666664
			],
			"type":"SCALAR"
		},
		{
			"bufferView":8,
			"componentType":5126,
			"count":10,
			"type":"VEC3"
		},
		{
			"bufferView":9,
			"componentType":5126,
			"count":10,
			"type":"VEC4"
		},
		{
			"bufferView":10,
			"componentType":5126,
			"count":10,
			"type":"VEC3"
		},
		{
			"bufferView":11,
			"componentType":5126,
			"count":10,
			"type":"VEC4"
		},
		{
			"bufferView":12,
			"componentType":5126,
			"count":10,
			"type":"VEC3"
		},
		{
			"bufferView":13,
			"componentType":5126,
			"count":10,
			"type":"VEC4"
		}
	],
	"bufferViews":[
		{
			"buffer":0,
			"byteLength":672,
			"byteOffset":0,
			"target":34962
		},
		{
			"buffer":0,
			"byteLength":672,
			"byteOffset":672,
			"target":34962
		},
		{
			"buffer":0,
			"byteLength":448,
			"byteOffset":1344,
			"target":34962
		},
		{
			"buffer":0,
			"byteLength":224,
			"byteOffset":1792,
			"target":34962
		},
		{
			"buffer":0,
			"byteLength":896,
			"byteOffset":2016,
			"target":34962
		},
		{
			"buffer":0,
			"byteLength":216,
			"byteOffset":2912,
			"target":34963
		},
		{
			"buffer":0,
			"byteLength":192,
			"byteOffset":3128
		},
		{
			"buffer":0,
			"byteLength":40,
			"byteOffset":3320
		},
		{
			"buffer":0,
			"byteLength":120,
			"byteOffset":3360
		},
		{
			"buffer":0,
			"byteLength":160,
			"byteOffset":3480
		},
		{
			"buffer":0,
			"byteLength":120,
			"byteOffset":3640
		},
		{
			"buffer":0,
			"byteLength":160,
			"byteOffset":3760
		},
		{
			"buffer":0,
			"byteLength":120,
			"byteOffset":3920
		},
		{
			"buffer":0,
			"byteLength":160,
			"byteOffset":4040
		}
	],
	"buffers":[
		{
			"byteLength":4200,
			"uri":"t.bin"
		}
	]
}
