{
	"asset":{
		"generator":"Khronos glTF Blender I/O v4.0.44",
		"version":"2.0"
	},
	"scene":0,
	"scenes":[
		{
			"name":"Scene",
			"nodes":[
				3
			]
		}
	],
	"nodes":[
		{
			"name":"Bone.001",
			"rotation":[
				0,
				1.1920927533992653e-07,
				0,
				1
			],
			"scale":[
				1,
				0.9999999403953552,
				1
			],
			"translation":[
				0,
				1,
				0
			]
		},
		{
			"children":[
				0
			],
			"name":"Bone"
		},
		{
			"mesh":0,
			"name":"Sphere",
			"skin":0
		},
		{
			"children":[
				2,
				1
			],
			"name":"Armature"
		}
	],
	"meshes":[
		{
			"name":"Sphere",
			"primitives":[
				{
					"attributes":{
						"POSITION":0,
						"NORMAL":1,
						"TEXCOORD_0":2,
						"JOINTS_0":3,
						"WEIGHTS_0":4
					},
					"indices":5
				}
			]
		}
	],
	"skins":[
		{
			"inverseBindMatrices":6,
			"joints":[
				1,
				0
			],
			"name":"Armature"
		}
	],
	"accessors":[
		{
			"bufferView":0,
			"componentType":5126,
			"count":1984,
			"max":[
				2.5065419673919678,
				2.506542682647705,
				2.5065410137176514
			],
			"min":[
				-2.506540298461914,
				-2.506542682647705,
				-2.506542682647705
			],
			"type":"VEC3"
		},
		{
			"bufferView":1,
			"componentType":5126,
			"count":1984,
			"type":"VEC3"
		},
		{
			"bufferView":2,
			"componentType":5126,
			"count":1984,
			"type":"VEC2"
		},
		{
			"bufferView":3,
			"componentType":5121,
			"count":1984,
			"type":"VEC4"
		},
		{
			"bufferView":4,
			"componentType":5126,
			"count":1984,
			"type":"VEC4"
		},
		{
			"bufferView":5,
			"componentType":5123,
			"count":2880,
			"type":"SCALAR"
		},
		{
			"bufferView":6,
			"componentType":5126,
			"count":2,
			"type":"MAT4"
		}
	],
	"bufferViews":[
		{
			"buffer":0,
			"byteLength":23808,
			"byteOffset":0,
			"target":34962
		},
		{
			"buffer":0,
			"byteLength":23808,
			"byteOffset":23808,
			"target":34962
		},
		{
			"buffer":0,
			"byteLength":15872,
			"byteOffset":47616,
			"target":34962
		},
		{
			"buffer":0,
			"byteLength":7936,
			"byteOffset":63488,
			"target":34962
		},
		{
			"buffer":0,
			"byteLength":31744,
			"byteOffset":71424,
			"target":34962
		},
		{
			"buffer":0,
			"byteLength":5760,
			"byteOffset":103168,
			"target":34963
		},
		{
			"buffer":0,
			"byteLength":128,
			"byteOffset":108928
		}
	],
	"buffers":[
		{
			"byteLength":109056,
			"uri":"uv_new.bin"
		}
	]
}
